<?xml version="1.0" standalone="no"?>
<!DOCTYPE svg PUBLIC "-//W3C//DTD SVG 20010904//EN"
 "http://www.w3.org/TR/2001/REC-SVG-20010904/DTD/svg10.dtd">
<svg version="1.0" xmlns="http://www.w3.org/2000/svg"
 width="700.000000pt" height="700.000000pt" viewBox="0 0 700.000000 700.000000"
 preserveAspectRatio="xMidYMid meet">
<metadata>
Created by potrace 1.14, written by Peter Selinger 2001-2017
</metadata>
<g transform="translate(0.000000,700.000000) scale(0.100000,-0.100000)"
fill="#000000" stroke="none">
<path d="M3325 5904 c-277 -28 -604 -103 -702 -160 -77 -44 -117 -152 -93
-245 12 -45 284 -519 328 -571 58 -68 138 -87 247 -59 207 53 425 65 636 35
122 -17 154 -14 214 21 52 30 56 35 236 345 149 258 153 267 157 331 3 52 0
74 -16 105 -26 51 -62 84 -104 94 -316 83 -430 101 -678 105 -102 2 -203 1
-225 -1z"/>
<path d="M4833 5389 c-59 -17 -106 -79 -268 -354 -146 -247 -159 -274 -163
-326 -6 -80 18 -126 133 -249 157 -169 254 -333 316 -533 35 -111 69 -159 134
-188 36 -17 73 -19 373 -19 362 0 376 2 435 58 73 69 85 162 43 323 -88 337
-236 634 -453 904 -99 124 -328 346 -386 374 -46 22 -109 26 -164 10z"/>
<path d="M1921 5300 c-55 -25 -189 -155 -294 -285 -219 -271 -376 -581 -463
-914 -26 -97 -35 -149 -32 -183 7 -66 52 -135 112 -173 l49 -30 341 0 341 0
53 29 c65 36 89 74 131 211 51 169 145 334 271 479 69 80 84 117 78 195 -4 53
-16 76 -178 346 l-175 290 -54 28 c-65 32 -119 34 -180 7z"/>
<path d="M1270 3264 c-46 -20 -87 -60 -112 -109 -71 -138 95 -629 333 -985
130 -195 347 -434 423 -465 77 -32 181 -9 238 51 31 34 316 522 334 574 31 83
13 147 -70 249 -121 150 -214 322 -267 494 -35 111 -69 159 -134 188 -36 17
-72 19 -375 18 -277 0 -341 -2 -370 -15z"/>
<path d="M2971 2150 c-78 -19 -108 -53 -249 -290 -217 -363 -217 -362 -190
-468 8 -33 25 -59 57 -92 40 -39 61 -50 161 -83 256 -83 443 -112 720 -112
270 1 450 24 679 85 68 19 94 31 128 63 55 51 79 121 64 189 -10 42 -302 570
-338 610 -28 31 -100 58 -156 58 -30 0 -98 -7 -153 -15 -181 -27 -398 -14
-554 34 -86 26 -128 31 -169 21z"/>
</g>
</svg>
