<?xml version="1.0" encoding="utf-8"?>
<!-- Generator: Adobe Illustrator 24.0.1, SVG Export Plug-In . SVG Version: 6.00 Build 0)  -->
<svg version="1.1" id="Capa_1" xmlns="http://www.w3.org/2000/svg" xmlns:xlink="http://www.w3.org/1999/xlink" x="0px" y="0px"
	 viewBox="0 0 512 512" style="enable-background:new 0 0 512 512;" xml:space="preserve">
<style type="text/css">
	.st0{fill:#FFFFFF;}
</style>
<g>
	<path class="st0" d="M171.8,207.4c4.1,0,7.5-3.4,7.5-7.5c0-4.1-3.4-7.5-7.5-7.5c-15.2,0-27.5,12.4-27.5,27.5v16
		c0,15.2,12.4,27.5,27.5,27.5s27.5-12.4,27.5-27.5v-12c0-4.1-3.4-7.5-7.5-7.5s-7.5,3.4-7.5,7.5v12c0,6.9-5.6,12.5-12.5,12.5
		s-12.5-5.6-12.5-12.5v-16C159.3,213,164.9,207.4,171.8,207.4z"/>
	<path class="st0" d="M367.7,236v-12c0-4.1-3.4-7.5-7.5-7.5s-7.5,3.4-7.5,7.5v12c0,6.9-5.6,12.5-12.5,12.5s-12.5-5.6-12.5-12.5v-16
		c0-6.9,5.6-12.5,12.5-12.5c4.1,0,7.5-3.4,7.5-7.5c0-4.1-3.4-7.5-7.5-7.5c-15.2,0-27.5,12.4-27.5,27.5v16
		c0,15.2,12.4,27.5,27.5,27.5S367.7,251.1,367.7,236z"/>
	<path class="st0" d="M181.4,373.3c17.1-18.6,45-29.6,74.7-29.6s57.6,11.1,74.7,29.6c1.5,1.6,3.5,2.4,5.5,2.4c1.8,0,3.6-0.7,5.1-2
		c3-2.8,3.2-7.5,0.4-10.6c-19.9-21.6-51.9-34.5-85.7-34.5s-65.8,12.9-85.7,34.5c-2.8,3-2.6,7.8,0.4,10.6
		C173.8,376.6,178.5,376.4,181.4,373.3z"/>
	<path class="st0" d="M15.1,248.7C16.9,187.1,42,129.2,85.6,85.6C129.2,42,187.1,16.9,248.7,15.1C310,13.3,369.1,34.5,415,75
		c3.1,2.7,7.8,2.4,10.6-0.7s2.4-7.8-0.7-10.6C376.2,20.8,313.4-1.8,248.3,0.1C182.8,2.1,121.3,28.6,75,75
		C28.6,121.3,2.1,182.8,0.1,248.3C-1.8,313.4,20.8,376.2,63.7,425c1.5,1.7,3.6,2.5,5.6,2.5c1.8,0,3.5-0.6,5-1.9
		c3.1-2.7,3.4-7.5,0.7-10.6C34.5,369.1,13.3,310,15.1,248.7z"/>
	<path class="st0" d="M448.3,87.1c-2.7-3.1-7.5-3.4-10.6-0.7c-3.1,2.7-3.4,7.5-0.7,10.6c40.4,45.9,61.7,105,59.9,166.3
		c-1.8,61.6-26.9,119.5-70.5,163.1s-101.5,68.6-163.1,70.5C202,498.7,142.9,477.5,97,437c-3.1-2.7-7.8-2.4-10.6,0.7
		s-2.4,7.8,0.7,10.6C133.9,489.5,193.6,512,256,512c2.6,0,5.2,0,7.7-0.1c65.4-1.9,127-28.5,173.3-74.8
		c46.3-46.3,72.9-107.9,74.8-173.3C513.8,198.6,491.2,135.8,448.3,87.1z"/>
</g>
</svg>
