<?xml version="1.0" encoding="utf-8"?>
<!-- Generator: Adobe Illustrator 24.0.1, SVG Export Plug-In . SVG Version: 6.00 Build 0)  -->
<svg version="1.1" id="Capa_1" xmlns="http://www.w3.org/2000/svg" xmlns:xlink="http://www.w3.org/1999/xlink" x="0px" y="0px"
	 viewBox="0 0 294 294" style="enable-background:new 0 0 294 294;" xml:space="preserve">
<style type="text/css">
	.st0{fill:#FFFFFF;}
</style>
<g>
	<path class="st0" d="M279,250H15c-8.3,0-15,6.7-15,15s6.7,15,15,15h264c8.3,0,15-6.7,15-15S287.3,250,279,250z"/>
	<path class="st0" d="M30.5,228h47c5.2,0,9.5-4.3,9.5-9.5v-130c0-5.2-4.3-9.5-9.5-9.5h-47c-5.2,0-9.5,4.3-9.5,9.5v130
		C21,223.7,25.3,228,30.5,228z"/>
	<path class="st0" d="M123.5,228h47c5.2,0,9.5-4.3,9.5-9.5v-195c0-5.2-4.3-9.5-9.5-9.5h-47c-5.2,0-9.5,4.3-9.5,9.5v195
		C114,223.7,118.3,228,123.5,228z"/>
	<path class="st0" d="M216.5,228h47c5.2,0,9.5-4.3,9.5-9.5v-105c0-5.2-4.3-9.5-9.5-9.5h-47c-5.2,0-9.5,4.3-9.5,9.5v105
		C207,223.7,211.3,228,216.5,228z"/>
</g>
</svg>
