<?xml version="1.0" encoding="utf-8"?>
<!-- Generator: Adobe Illustrator 24.0.1, SVG Export Plug-In . SVG Version: 6.00 Build 0)  -->
<svg version="1.1" xmlns="http://www.w3.org/2000/svg" xmlns:xlink="http://www.w3.org/1999/xlink" x="0px" y="0px"
	 viewBox="0 0 81.83 18.32" style="enable-background:new 0 0 81.83 18.32;" xml:space="preserve">
<style type="text/css">
	.st0{fill:#FFFFFF;}
	.st1{font-family:'No-Virus';}
	.st2{font-size:12px;}
	.st3{fill:#66FF99;}
	.st4{fill:#FDFD96;}
	.st5{fill:#55BFF0;}
	.st6{fill:#FF6961;}
</style>
<g id="Capa_1">
</g>
<g id="Capa_2">
	<g>
		<text transform="matrix(1 0 0 1 14.0661 12.823)" class="st0 st1 st2">ColorBrain</text>
		<g>
			<path class="st3" d="M2.17,1.2c2.17-1.18,3.1,0.19,5.84,1.22c2.9,1.02,5.42,3.21,3.86,4.17c-1.44,0.68-4.36,0.23-7.65-0.21
				C0.62,5.88-0.14,2.53,2.17,1.2z"/>
		</g>
		<g>
			<path class="st4" d="M81.11,17.55c-1.89,1.47-3.89-0.55-6.75-1.56c-3.08-1-4.94-2.24-3.51-3.17c1.42-0.71,3.29-0.8,6.33-0.46
				C80.54,12.61,83.14,15.92,81.11,17.55z"/>
		</g>
		<g>
			<path class="st5" d="M12.4,12.12c1.38,0.84-1.17,2.45-4.75,3.65c-3.41,1.21-4.73,3.39-6.7,2.22c-2.21-1.34-0.39-4.9,3.82-5.48
				C8.61,11.88,11.13,11.53,12.4,12.12z"/>
		</g>
		<g>
			<path class="st6" d="M78.56,0.05c1.49,0.43,2.58,4.7-0.23,6.44c-2.67,1.57-6.02,1.58-7.36,1.41c-1.51-0.42,0.1-2.58,2.81-4.34
				C76.54,1.89,77.27-0.36,78.56,0.05z"/>
		</g>
	</g>
</g>
</svg>
