<?xml version="1.0" encoding="utf-8"?>
<!-- Generator: Adobe Illustrator 24.0.1, SVG Export Plug-In . SVG Version: 6.00 Build 0)  -->
<svg version="1.1" id="Capa_1" xmlns="http://www.w3.org/2000/svg" xmlns:xlink="http://www.w3.org/1999/xlink" x="0px" y="0px"
	 viewBox="0 0 64 64" style="enable-background:new 0 0 64 64;" xml:space="preserve">
<style type="text/css">
	.st0{filter:url(#Adobe_OpacityMaskFilter);}
	.st1{fill-rule:evenodd;clip-rule:evenodd;fill:#FFFFFF;}
	.st2{mask:url(#b_1_);fill-rule:evenodd;clip-rule:evenodd;fill:#DEDECA;}
	.st3{fill-rule:evenodd;clip-rule:evenodd;fill:#DEDECA;}
	.st4{fill-rule:evenodd;clip-rule:evenodd;fill:#76ABC4;}
	.st5{fill-rule:evenodd;clip-rule:evenodd;fill:#73BBA3;}
	.st6{fill-rule:evenodd;clip-rule:evenodd;fill:#D5915B;}
	.st7{fill-rule:evenodd;clip-rule:evenodd;fill:#B85756;}
	.st8{fill-rule:evenodd;clip-rule:evenodd;fill:#F0CB83;}
	.st9{fill-rule:evenodd;clip-rule:evenodd;fill:#4C5665;}
</style>
<g>
	<defs>
		<filter id="Adobe_OpacityMaskFilter" filterUnits="userSpaceOnUse" x="0" y="0" width="64" height="64">
			<feColorMatrix  type="matrix" values="1 0 0 0 0  0 1 0 0 0  0 0 1 0 0  0 0 0 1 0"/>
		</filter>
	</defs>
	<mask maskUnits="userSpaceOnUse" x="0" y="0" width="64" height="64" id="b_1_">
		<g class="st0">
			<path id="a_1_" class="st1" d="M0.1,64V0H64v64H0.1z"/>
		</g>
	</mask>
	<path class="st2" d="M64,32c0,17.7-14.3,32-32,32S0,49.7,0,32S14.3,0,32,0S64,14.3,64,32"/>
	<path class="st3" d="M0,0"/>
	<path class="st4" d="M19.5,35.5c-0.2-0.9-1-1.5-1.9-1.5h-5.2c-1.1,0-2,0.9-2,2c0,0.1,0,0.3,0,0.4c0.9,4.5,3.2,8.5,6.5,11.6
		c0.8,0.8,2.1,0.7,2.8-0.1c0.1-0.1,0.2-0.2,0.3-0.4l2.6-4.5c0.4-0.8,0.3-1.7-0.3-2.3C21,39.2,20,37.4,19.5,35.5"/>
	<path class="st5" d="M36.9,45.7c-0.4-0.8-1.3-1.1-2.2-1c-2.2,0.5-4.4,0.4-6.5-0.3c-0.9-0.3-1.8,0.1-2.3,0.9l-2.6,4.4
		c-0.3,0.5-0.3,1.1-0.1,1.7c0.2,0.6,0.6,1,1.2,1.2c2.4,0.9,5,1.4,7.6,1.3c2.2,0,4.3-0.3,6.3-0.9c1.1-0.3,1.7-1.4,1.3-2.5
		c0-0.1-0.1-0.3-0.2-0.4L36.9,45.7"/>
	<path class="st6" d="M44.5,28.5c0.2,0.9,1,1.5,1.9,1.5h5.2c1.1,0,2-0.9,2-2c0-0.1,0-0.3,0-0.4c-1-4.9-3.6-9.3-7.5-12.5
		c-0.8-0.7-2.1-0.6-2.8,0.3c-0.1,0.1-0.1,0.2-0.2,0.3l-2.6,4.4c-0.5,0.8-0.3,1.8,0.4,2.5C42.6,24.2,43.9,26.2,44.5,28.5"/>
	<path class="st7" d="M38.3,10.9C36.3,10.3,34.1,10,32,10c-2.6,0-5.2,0.5-7.6,1.3c-0.6,0.2-1,0.6-1.2,1.2c-0.2,0.6-0.1,1.2,0.1,1.7
		l2.6,4.4c0.5,0.8,1.4,1.2,2.3,0.9c2.1-0.6,4.3-0.7,6.5-0.3c0.9,0.2,1.7-0.2,2.2-1l2.6-4.5c0.6-1,0.2-2.2-0.7-2.7
		C38.6,11,38.5,11,38.3,10.9"/>
	<path class="st8" d="M51.6,34h-5.2c-0.9,0-1.7,0.6-1.9,1.5c-0.6,2.3-1.9,4.4-3.6,6c-0.7,0.6-0.8,1.7-0.4,2.5l2.6,4.4
		c0.5,1,1.8,1.3,2.7,0.7c0.1-0.1,0.2-0.1,0.3-0.2c3.8-3.2,6.5-7.6,7.5-12.5c0.2-1.1-0.5-2.1-1.6-2.4C51.9,34,51.7,34,51.6,34"/>
	<path class="st9" d="M20,16.4c-0.5-1-1.8-1.3-2.7-0.7c-0.1,0.1-0.3,0.2-0.4,0.3c-3.3,3.1-5.6,7.2-6.5,11.6
		c-0.2,1.1,0.5,2.1,1.6,2.4c0.1,0,0.3,0,0.4,0h5.2c0.9,0,1.7-0.6,1.9-1.5c0.5-2,1.5-3.8,2.9-5.3c0.6-0.6,0.7-1.6,0.3-2.3L20,16.4"/>
</g>
</svg>
